<?xml version="1.0" encoding="utf-8"?>
<!-- Generator: Adobe Illustrator 16.0.0, SVG Export Plug-In . SVG Version: 6.00 Build 0)  -->
<!DOCTYPE svg PUBLIC "-//W3C//DTD SVG 1.1//EN" "http://www.w3.org/Graphics/SVG/1.1/DTD/svg11.dtd">
<svg version="1.1" id="Capa_3" xmlns="http://www.w3.org/2000/svg" xmlns:xlink="http://www.w3.org/1999/xlink" x="0px" y="0px"
	 width="155.883px" height="180px" viewBox="0 0 155.883 180" enable-background="new 0 0 155.883 180" xml:space="preserve">
<polygon fill="#EFEFEF" points="73.94,144.024 29.155,118.167 29.155,61.833 73.94,35.976 73.94,19.81 15.155,53.75 15.155,126.25 
	73.94,160.19 "/>
<g>
	<path fill="#EFEFEF" d="M77.94,6.928l71.942,41.536v83.072L77.94,173.072L6,131.536V48.464L77.94,6.928 M77.94,0L0,45v90l77.94,45
		l77.942-45V45L77.94,0L77.94,0z"/>
</g>
<g>
	<polygon fill="none" stroke="#EFEFEF" stroke-width="6" stroke-linejoin="round" stroke-miterlimit="10" points="77.94,90 
		77.94,130 43.301,110 43.301,70 	"/>
	<polygon fill="none" stroke="#EFEFEF" stroke-width="6" stroke-linejoin="round" stroke-miterlimit="10" points="112.582,70 
		112.582,110 77.94,130 77.94,90 	"/>
	<polygon fill="none" stroke="#EFEFEF" stroke-width="6" stroke-linejoin="round" stroke-miterlimit="10" points="112.582,70 
		77.94,50 43.301,70 77.94,90 	"/>
</g>
<g>
	<polygon fill="#EFEFEF" points="121.728,121.054 121.728,137.22 125.728,134.91 125.728,118.744 	"/>
	<polygon fill="#EFEFEF" points="111.728,126.827 111.728,142.993 115.728,140.684 115.728,124.518 	"/>
	<polygon fill="#EFEFEF" points="101.728,132.601 101.728,148.767 105.728,146.457 105.728,130.291 	"/>
	<g>
		<polygon fill="#EFEFEF" points="85.728,141.838 81.94,144.024 81.94,160.19 85.728,158.004 		"/>
		<polygon fill="#EFEFEF" points="91.728,138.374 91.728,154.54 95.728,152.23 95.728,136.064 		"/>
	</g>
	<polygon fill="#EFEFEF" points="81.654,19.644 81.654,30.037 131.728,58.946 131.728,121.054 131.728,131.446 140.728,126.25 
		140.728,53.75 	"/>
</g>
</svg>
